<mxfile host="app.diagrams.net" modified="2024-02-14T04:03:31.129Z" agent="Mozilla/5.0 (Macintosh; Intel Mac OS X 10_15_7) AppleWebKit/537.36 (KHTML, like Gecko) Chrome/120.0.0.0 Safari/537.36" version="23.1.4" etag="1KLQnoMP5SDLLTuOcz2e" type="github">
  <diagram name="페이지-1" id="X56DmWOO3QQV5wl3HOiJ">
    <mxGraphModel>
      <root>
        <mxCell id="0" />
        <mxCell id="1" parent="0" />
      </root>
    </mxGraphModel>
  </diagram>
</mxfile>
